<?xml version="1.0" encoding="utf-8"?>
<!-- Generator: Adobe Illustrator 24.1.2, SVG Export Plug-In . SVG Version: 6.00 Build 0)  -->
<svg version="1.1" id="Layer_1" xmlns="http://www.w3.org/2000/svg" xmlns:xlink="http://www.w3.org/1999/xlink" x="0px" y="0px"
	 viewBox="0 0 612 792" style="enable-background:new 0 0 612 792;" xml:space="preserve">
<style type="text/css">
	.st0{fill:#F7941D;stroke:#000000;stroke-miterlimit:10;}
	.st1{font-family:'ScriptMTBold';}
	.st2{font-size:25px;}
	.st3{fill:#72CAC6;stroke:#000000;stroke-miterlimit:10;}
	.st4{fill:#FFFFFF;stroke:#000000;stroke-miterlimit:10;}
	.st5{fill:#FCC195;stroke:#000000;stroke-miterlimit:10;}
	.st6{fill:#0E8B44;stroke:#000000;stroke-miterlimit:10;}
	.st7{fill:#F15F22;stroke:#000000;stroke-miterlimit:10;}
	.st8{fill:#75C156;stroke:#000000;stroke-miterlimit:10;}
	.st9{fill:#FFF200;stroke:#000000;stroke-miterlimit:10;}
	.st10{fill:#006838;stroke:#000000;stroke-miterlimit:10;}
	.st11{stroke:#000000;stroke-miterlimit:10;}
	.st12{fill:none;stroke:#000000;stroke-miterlimit:10;}
</style>
<rect y="0" class="st0" width="612" height="792"/>
<text transform="matrix(1 0 0 1 47.9742 137.9351)" class="st1 st2">pixelGraph</text>
<g>
	<g>
		<path d="M49.87,209.63c1.33-0.22,2.92-0.36,4.63-0.36c3.12,0,5.35,0.74,6.82,2.12c1.51,1.36,2.39,3.31,2.39,6.03
			c0,2.76-0.86,5-2.42,6.55c-1.59,1.57-4.2,2.43-7.46,2.43c-1.56,0-2.85-0.06-3.96-0.19V209.63z M52.05,224.53
			c0.55,0.09,1.36,0.1,2.19,0.1c4.66,0.01,7.17-2.59,7.17-7.14c0.03-3.98-2.22-6.49-6.81-6.49c-1.13,0-1.97,0.1-2.55,0.22V224.53z"
			/>
		<path d="M68.91,210.74c0,0.75-0.52,1.37-1.4,1.37c-0.8,0-1.33-0.62-1.33-1.37c0-0.75,0.56-1.37,1.37-1.37
			C68.37,209.37,68.9,209.97,68.91,210.74z M66.45,226.25v-12.09h2.19v12.09H66.45z"/>
		<path d="M71.99,224.01c0.66,0.41,1.82,0.86,2.91,0.86c1.6,0,2.35-0.79,2.35-1.8c0-1.06-0.64-1.61-2.25-2.21
			c-2.18-0.79-3.22-1.98-3.21-3.43c0-1.95,1.58-3.54,4.18-3.54c1.23,0,2.29,0.33,2.96,0.74l-0.55,1.6
			c-0.46-0.29-1.35-0.71-2.48-0.71c-1.3,0-2,0.75-2,1.66c0,1,0.71,1.45,2.3,2.06c2.08,0.78,3.17,1.83,3.17,3.63
			c0,2.14-1.67,3.64-4.52,3.64c-1.32,0-2.55-0.34-3.4-0.84L71.99,224.01z"/>
		<path d="M90.82,225.81c-0.58,0.28-1.84,0.7-3.47,0.7c-3.65,0-6.03-2.48-6.03-6.18c0-3.73,2.54-6.44,6.49-6.44
			c1.3,0,2.46,0.33,3.06,0.64l-0.49,1.69c-0.54-0.29-1.36-0.58-2.57-0.58c-2.76,0-4.27,2.07-4.26,4.58c0,2.8,1.8,4.52,4.21,4.52
			c1.23,0,2.07-0.31,2.69-0.58L90.82,225.81z"/>
		<path d="M104.34,220.09c0,4.48-3.11,6.43-6.01,6.43c-3.28,0-5.81-2.39-5.81-6.23c0-4.05,2.66-6.41,6-6.41
			C102,213.88,104.34,216.41,104.34,220.09z M94.76,220.23c0,2.65,1.52,4.65,3.66,4.65c2.11,0,3.68-1.97,3.68-4.71
			c0-2.04-1.03-4.63-3.64-4.63C95.88,215.53,94.76,217.94,94.76,220.23z"/>
		<path d="M107.97,214.16l2.37,6.78c0.41,1.12,0.72,2.12,0.99,3.12h0.07c0.28-1,0.62-2.01,1.01-3.12l2.36-6.78h2.3l-4.76,12.09h-2.1
			l-4.6-12.09H107.97z"/>
		<path d="M120.38,220.6c0.04,2.97,1.93,4.2,4.14,4.2c1.57,0,2.54-0.28,3.35-0.62l0.39,1.56c-0.77,0.35-2.11,0.77-4.03,0.77
			c-3.71,0-5.95-2.47-5.95-6.1c0-3.66,2.16-6.52,5.69-6.52c3.94,0,4.97,3.46,4.97,5.69c0,0.46-0.03,0.79-0.08,1.03H120.38z
			 M126.82,219.02c0.02-1.39-0.57-3.56-3.03-3.56c-2.24,0-3.2,2.03-3.38,3.56H126.82z"/>
		<path d="M131.67,217.92c0-1.43-0.04-2.64-0.1-3.76h1.93l0.08,2.37h0.08c0.56-1.62,1.9-2.65,3.37-2.65c0.24,0,0.41,0.02,0.61,0.06
			v2.07c-0.22-0.05-0.45-0.06-0.75-0.06c-1.55,0-2.64,1.17-2.94,2.81c-0.06,0.31-0.09,0.67-0.09,1.03v6.46h-2.19V217.92z"/>
		<path d="M147.79,210.68v3.48h3.16v1.67h-3.16v6.51c0,1.51,0.43,2.36,1.66,2.36c0.57,0,0.98-0.07,1.27-0.16l0.1,1.67
			c-0.43,0.17-1.11,0.3-1.96,0.3c-1.01,0-1.85-0.33-2.37-0.93c-0.61-0.67-0.85-1.73-0.85-3.15v-6.6h-1.87v-1.67h1.87v-2.91
			L147.79,210.68z"/>
		<path d="M153.43,208.5h2.19v7.55h0.05c0.36-0.62,0.91-1.17,1.58-1.55c0.64-0.38,1.42-0.61,2.25-0.61c1.63,0,4.21,0.99,4.21,5.16
			v7.2h-2.19v-6.96c0-1.95-0.74-3.59-2.79-3.59c-1.44,0-2.54,1-2.97,2.19c-0.11,0.31-0.15,0.64-0.15,1.05v7.31h-2.19V208.5z"/>
		<path d="M168.53,220.6c0.04,2.97,1.93,4.2,4.14,4.2c1.57,0,2.54-0.28,3.35-0.62l0.39,1.56c-0.77,0.35-2.11,0.77-4.03,0.77
			c-3.71,0-5.95-2.47-5.95-6.1c0-3.66,2.16-6.52,5.69-6.52c3.94,0,4.97,3.46,4.97,5.69c0,0.46-0.03,0.79-0.08,1.03H168.53z
			 M174.96,219.02c0.02-1.39-0.57-3.56-3.03-3.56c-2.24,0-3.2,2.03-3.37,3.56H174.96z"/>
		<path d="M185.98,214.16l1.62,6.13c0.35,1.35,0.65,2.61,0.9,3.86h0.06c0.27-1.22,0.67-2.53,1.08-3.84l1.97-6.15h1.85l1.88,6.05
			c0.43,1.43,0.79,2.71,1.07,3.95h0.06c0.22-1.22,0.55-2.5,0.94-3.93l1.73-6.06h2.17l-3.9,12.09h-2l-1.84-5.77
			c-0.44-1.36-0.78-2.56-1.07-3.98h-0.05c-0.31,1.46-0.68,2.71-1.11,4l-1.94,5.75h-2.01l-3.64-12.09H185.98z"/>
		<path d="M214.47,220.09c0,4.48-3.11,6.43-6.01,6.43c-3.28,0-5.81-2.39-5.81-6.23c0-4.05,2.66-6.41,6-6.41
			C212.12,213.88,214.47,216.41,214.47,220.09z M204.88,220.23c0,2.65,1.52,4.65,3.66,4.65c2.11,0,3.68-1.97,3.68-4.71
			c0-2.04-1.03-4.63-3.64-4.63C206,215.53,204.88,217.94,204.88,220.23z"/>
		<path d="M217.25,217.92c0-1.43-0.04-2.64-0.1-3.76h1.93l0.08,2.37h0.08c0.56-1.62,1.9-2.65,3.37-2.65c0.24,0,0.41,0.02,0.61,0.06
			v2.07c-0.22-0.05-0.45-0.06-0.75-0.06c-1.55,0-2.64,1.17-2.94,2.81c-0.06,0.31-0.09,0.67-0.09,1.03v6.46h-2.19V217.92z"/>
		<path d="M225.42,208.5h2.19v17.75h-2.19V208.5z"/>
		<path d="M241.76,208.5v14.63c0,1.07,0.04,2.28,0.1,3.12h-1.95l-0.11-2.09h-0.06c-0.67,1.35-2.13,2.37-4.1,2.37
			c-2.93,0-5.19-2.48-5.19-6.14c-0.02-4.04,2.49-6.5,5.43-6.5c1.86,0,3.11,0.87,3.65,1.83h0.05v-7.22H241.76z M239.57,219.08
			c0-0.29-0.03-0.65-0.09-0.94c-0.34-1.39-1.53-2.53-3.18-2.53c-2.28,0-3.64,2-3.64,4.65c0,2.46,1.22,4.49,3.59,4.49
			c1.47,0,2.81-0.99,3.21-2.64c0.08-0.29,0.11-0.6,0.11-0.94V219.08z"/>
		<path d="M248.19,209.13c-0.57,2.09-1.65,4.79-2.34,5.93l-1.4,0.16c0.54-1.46,1.2-4.07,1.47-5.86L248.19,209.13z"/>
		<path d="M250.29,224.01c0.66,0.41,1.82,0.86,2.91,0.86c1.6,0,2.35-0.79,2.35-1.8c0-1.06-0.64-1.61-2.25-2.21
			c-2.18-0.79-3.22-1.98-3.21-3.43c0-1.95,1.58-3.54,4.18-3.54c1.23,0,2.29,0.33,2.96,0.74l-0.55,1.6
			c-0.46-0.29-1.35-0.71-2.48-0.71c-1.3,0-2,0.75-2,1.66c0,1,0.71,1.45,2.3,2.06c2.08,0.78,3.17,1.83,3.17,3.63
			c0,2.14-1.67,3.64-4.52,3.64c-1.32,0-2.55-0.34-3.4-0.84L250.29,224.01z"/>
		<path d="M268.44,210.68v3.48h3.16v1.67h-3.16v6.51c0,1.51,0.43,2.36,1.66,2.36c0.57,0,0.98-0.07,1.27-0.16l0.1,1.67
			c-0.43,0.17-1.11,0.3-1.96,0.3c-1.01,0-1.85-0.33-2.37-0.93c-0.61-0.67-0.85-1.73-0.85-3.15v-6.6h-1.87v-1.67h1.87v-2.91
			L268.44,210.68z"/>
		<path d="M285.02,220.09c0,4.48-3.11,6.43-6.01,6.43c-3.28,0-5.81-2.39-5.81-6.23c0-4.05,2.66-6.41,6-6.41
			C282.67,213.88,285.02,216.41,285.02,220.09z M275.43,220.23c0,2.65,1.52,4.65,3.66,4.65c2.11,0,3.68-1.97,3.68-4.71
			c0-2.04-1.03-4.63-3.64-4.63C276.55,215.53,275.43,217.94,275.43,220.23z"/>
		<path d="M287.79,218.1c0-1.54-0.04-2.8-0.1-3.94h1.96l0.12,2.06h0.05c0.88-1.47,2.33-2.33,4.29-2.33c2.93,0,5.13,2.46,5.13,6.13
			c0,4.36-2.67,6.5-5.5,6.5c-1.62,0-3.01-0.7-3.73-1.9h-0.05v6.58h-2.19V218.1z M289.98,221.33c0,0.31,0.03,0.61,0.09,0.89
			c0.4,1.54,1.73,2.58,3.29,2.58c2.33,0,3.68-1.91,3.68-4.68c0-2.41-1.26-4.49-3.59-4.49c-1.5,0-2.91,1.06-3.33,2.71
			c-0.07,0.28-0.14,0.6-0.14,0.89V221.33z"/>
		<path d="M49.87,239.63c1.33-0.22,2.92-0.36,4.63-0.36c3.12,0,5.35,0.74,6.82,2.12c1.51,1.36,2.39,3.31,2.39,6.03
			c0,2.76-0.86,5-2.42,6.55c-1.59,1.57-4.2,2.43-7.46,2.43c-1.56,0-2.85-0.06-3.96-0.19V239.63z M52.05,254.53
			c0.55,0.09,1.36,0.1,2.19,0.1c4.66,0.01,7.17-2.59,7.17-7.14c0.03-3.98-2.22-6.49-6.81-6.49c-1.13,0-1.97,0.1-2.55,0.22V254.53z"
			/>
		<path d="M67.68,250.6c0.04,2.97,1.93,4.2,4.14,4.2c1.57,0,2.54-0.28,3.35-0.62l0.39,1.56c-0.77,0.35-2.11,0.77-4.03,0.77
			c-3.71,0-5.95-2.47-5.95-6.1c0-3.66,2.16-6.52,5.69-6.52c3.94,0,4.97,3.46,4.97,5.69c0,0.46-0.03,0.79-0.08,1.03H67.68z
			 M74.12,249.02c0.02-1.39-0.57-3.56-3.03-3.56c-2.24,0-3.2,2.03-3.37,3.56H74.12z"/>
		<path d="M78.67,254.01c0.66,0.41,1.82,0.86,2.91,0.86c1.6,0,2.35-0.79,2.35-1.8c0-1.06-0.64-1.61-2.25-2.21
			c-2.18-0.79-3.22-1.98-3.21-3.43c0-1.95,1.58-3.54,4.18-3.54c1.23,0,2.29,0.33,2.96,0.74l-0.55,1.6
			c-0.46-0.29-1.35-0.71-2.48-0.71c-1.3,0-2,0.75-2,1.66c0,1,0.71,1.45,2.3,2.06c2.08,0.78,3.17,1.83,3.17,3.63
			c0,2.14-1.67,3.64-4.52,3.64c-1.32,0-2.55-0.34-3.4-0.84L78.67,254.01z"/>
		<path d="M91.33,240.74c0,0.75-0.52,1.37-1.4,1.37c-0.8,0-1.33-0.62-1.33-1.37c0-0.75,0.56-1.37,1.37-1.37
			C90.8,239.37,91.33,239.97,91.33,240.74z M88.88,256.25v-12.09h2.19v12.09H88.88z"/>
		<path d="M105.16,244.16c-0.06,0.85-0.1,1.84-0.1,3.31v7.02c0,2.8-0.57,4.47-1.73,5.53c-1.19,1.09-2.88,1.45-4.4,1.45
			c-1.46,0-3.05-0.34-4.04-1l0.55-1.69c0.81,0.5,2.05,0.97,3.56,0.97c2.24,0,3.89-1.17,3.89-4.24v-1.35h-0.05
			c-0.66,1.14-1.98,2.04-3.84,2.04c-3.01,0-5.15-2.56-5.15-5.91c0-4.1,2.67-6.41,5.46-6.41c2.1,0,3.23,1.08,3.77,2.09h0.05
			l0.09-1.81H105.16z M102.87,248.91c0-0.36-0.03-0.69-0.12-0.98c-0.41-1.28-1.47-2.34-3.09-2.34c-2.1,0-3.6,1.77-3.6,4.58
			c0,2.36,1.22,4.35,3.58,4.35c1.36,0,2.59-0.86,3.06-2.27c0.12-0.35,0.17-0.79,0.17-1.17V248.91z"/>
		<path d="M108.7,247.42c0-1.26-0.04-2.26-0.1-3.26h1.94l0.12,1.99h0.06c0.59-1.14,2-2.26,4-2.26c1.66,0,4.26,1,4.26,5.15v7.21
			h-2.19v-6.97c0-1.95-0.74-3.59-2.79-3.59c-1.44,0-2.57,1.03-2.96,2.26c-0.09,0.27-0.15,0.66-0.15,1.02v7.28h-2.19V247.42z"/>
		<path d="M123.81,250.6c0.04,2.97,1.93,4.2,4.14,4.2c1.57,0,2.54-0.28,3.35-0.62l0.39,1.56c-0.77,0.35-2.11,0.77-4.03,0.77
			c-3.71,0-5.95-2.47-5.95-6.1c0-3.66,2.16-6.52,5.69-6.52c3.94,0,4.97,3.46,4.97,5.69c0,0.46-0.03,0.79-0.08,1.03H123.81z
			 M130.24,249.02c0.02-1.39-0.57-3.56-3.03-3.56c-2.24,0-3.2,2.03-3.38,3.56H130.24z"/>
		<path d="M135.1,247.92c0-1.43-0.04-2.64-0.1-3.76h1.93l0.08,2.37h0.08c0.56-1.62,1.9-2.65,3.37-2.65c0.24,0,0.41,0.02,0.61,0.06
			v2.07c-0.22-0.05-0.45-0.06-0.75-0.06c-1.55,0-2.64,1.17-2.94,2.81c-0.06,0.31-0.09,0.67-0.09,1.03v6.46h-2.19V247.92z"/>
		<path d="M142.96,254.01c0.66,0.41,1.82,0.86,2.91,0.86c1.6,0,2.35-0.79,2.35-1.8c0-1.06-0.64-1.61-2.25-2.21
			c-2.18-0.79-3.22-1.98-3.21-3.43c0-1.95,1.58-3.54,4.18-3.54c1.23,0,2.29,0.33,2.96,0.74l-0.55,1.6
			c-0.46-0.29-1.35-0.71-2.48-0.71c-1.3,0-2,0.75-2,1.66c0,1,0.71,1.45,2.3,2.06c2.08,0.78,3.17,1.83,3.17,3.63
			c0,2.14-1.67,3.64-4.52,3.64c-1.32,0-2.55-0.34-3.4-0.84L142.96,254.01z"/>
		<path d="M169.1,256.25c-0.48-0.48-0.92-0.96-1.57-1.64c-1.47,1.34-3.07,1.92-4.92,1.92c-3.27,0-5.18-2.2-5.18-4.73
			c0-2.3,1.38-3.86,3.29-4.92l0-0.08c-0.87-1.09-1.4-2.32-1.4-3.51c0-2.06,1.49-4.16,4.28-4.16c2.1,0,3.73,1.39,3.73,3.58
			c0,1.77-1.04,3.16-3.7,4.49l-0.01,0.08c1.43,1.65,3.02,3.48,4.11,4.69c0.78-1.18,1.29-2.8,1.62-4.92h1.99
			c-0.45,2.65-1.17,4.74-2.43,6.22c0.9,0.96,1.77,1.9,2.79,2.98H169.1z M166.44,253.35c-1-1.09-2.87-3.16-4.73-5.3
			c-0.92,0.58-2.18,1.65-2.18,3.42c0,1.94,1.41,3.4,3.44,3.4C164.43,254.87,165.63,254.23,166.44,253.35z M161.31,243.07
			c0,1.21,0.57,2.13,1.28,3.03c1.71-0.97,2.8-1.87,2.8-3.3c0-1.04-0.58-2.18-1.96-2.18C162.05,240.63,161.31,241.79,161.31,243.07z"
			/>
		<path d="M187.52,255.81c-0.58,0.28-1.84,0.7-3.47,0.7c-3.65,0-6.03-2.48-6.03-6.18c0-3.73,2.54-6.44,6.49-6.44
			c1.3,0,2.46,0.33,3.06,0.64l-0.49,1.69c-0.54-0.29-1.36-0.58-2.57-0.58c-2.76,0-4.27,2.07-4.26,4.58c0,2.8,1.8,4.52,4.21,4.52
			c1.23,0,2.07-0.31,2.69-0.58L187.52,255.81z"/>
		<path d="M190.1,247.92c0-1.43-0.04-2.64-0.1-3.76h1.93l0.08,2.37h0.08c0.56-1.62,1.9-2.65,3.37-2.65c0.24,0,0.41,0.02,0.61,0.06
			v2.07c-0.22-0.05-0.45-0.06-0.75-0.06c-1.55,0-2.64,1.17-2.94,2.81c-0.06,0.31-0.09,0.67-0.09,1.03v6.46h-2.19V247.92z"/>
		<path d="M199.51,250.6c0.04,2.97,1.93,4.2,4.14,4.2c1.57,0,2.54-0.28,3.35-0.62l0.39,1.56c-0.77,0.35-2.11,0.77-4.03,0.77
			c-3.71,0-5.95-2.47-5.95-6.1c0-3.66,2.16-6.52,5.69-6.52c3.94,0,4.97,3.46,4.97,5.69c0,0.46-0.03,0.79-0.08,1.03H199.51z
			 M205.94,249.02c0.02-1.39-0.57-3.56-3.03-3.56c-2.24,0-3.2,2.03-3.37,3.56H205.94z"/>
		<path d="M217.5,256.25l-0.19-1.53h-0.07c-0.66,0.94-1.97,1.8-3.7,1.8c-2.44,0-3.69-1.73-3.69-3.47c0-2.93,2.59-4.54,7.26-4.5
			v-0.26c0-0.98-0.28-2.8-2.75-2.79c-1.13,0-2.3,0.34-3.15,0.9l-0.5-1.46c1-0.65,2.46-1.06,3.99-1.06c3.69,0,4.6,2.53,4.6,4.95v4.52
			c0,1.03,0.05,2.06,0.18,2.89H217.5z M217.16,250.07c-2.38-0.05-5.1,0.38-5.1,2.71c0,1.44,0.95,2.1,2.05,2.1
			c1.59,0,2.6-1,2.95-2.02c0.08-0.23,0.1-0.48,0.1-0.69V250.07z"/>
		<path d="M225.49,240.68v3.48h3.16v1.67h-3.16v6.51c0,1.51,0.43,2.36,1.66,2.36c0.57,0,0.98-0.07,1.27-0.16l0.1,1.67
			c-0.43,0.17-1.11,0.3-1.96,0.3c-1.01,0-1.85-0.33-2.37-0.93c-0.61-0.67-0.85-1.73-0.85-3.15v-6.6h-1.87v-1.67h1.87v-2.91
			L225.49,240.68z"/>
		<path d="M233.58,240.74c0,0.75-0.52,1.37-1.4,1.37c-0.8,0-1.33-0.62-1.33-1.37c0-0.75,0.56-1.37,1.37-1.37
			C233.04,239.37,233.58,239.97,233.58,240.74z M231.13,256.25v-12.09h2.19v12.09H231.13z"/>
		<path d="M237.82,244.16l2.37,6.78c0.41,1.12,0.72,2.12,0.99,3.12h0.07c0.28-1,0.62-2.01,1.01-3.12l2.36-6.78h2.3l-4.76,12.09h-2.1
			l-4.6-12.09H237.82z"/>
		<path d="M250.23,250.6c0.04,2.97,1.93,4.2,4.14,4.2c1.57,0,2.54-0.28,3.35-0.62l0.39,1.56c-0.77,0.35-2.11,0.77-4.03,0.77
			c-3.71,0-5.95-2.47-5.95-6.1c0-3.66,2.16-6.52,5.69-6.52c3.94,0,4.97,3.46,4.97,5.69c0,0.46-0.03,0.79-0.08,1.03H250.23z
			 M256.66,249.02c0.02-1.39-0.57-3.56-3.03-3.56c-2.24,0-3.2,2.03-3.38,3.56H256.66z"/>
		<path d="M261.21,254.01c0.66,0.41,1.82,0.86,2.91,0.86c1.6,0,2.35-0.79,2.35-1.8c0-1.06-0.64-1.61-2.25-2.21
			c-2.18-0.79-3.22-1.98-3.21-3.43c0-1.95,1.58-3.54,4.18-3.54c1.23,0,2.29,0.33,2.96,0.74l-0.55,1.6
			c-0.47-0.29-1.35-0.71-2.48-0.71c-1.3,0-2,0.75-2,1.66c0,1,0.71,1.45,2.3,2.06c2.08,0.78,3.17,1.83,3.17,3.63
			c0,2.14-1.67,3.64-4.52,3.64c-1.32,0-2.55-0.34-3.4-0.84L261.21,254.01z"/>
	</g>
</g>
<ellipse class="st3" cx="187.58" cy="409.36" rx="29.22" ry="40.26"/>
<rect x="136.29" y="437.94" class="st4" width="329.87" height="16.88"/>
<ellipse class="st3" cx="131.82" cy="503.52" rx="49.27" ry="37.01"/>
<rect x="114.21" y="409.36" class="st5" width="368.83" height="292.21"/>
<path class="st4" d="M448.3,464.88H148.95c-5.56,0-10.06-4.51-10.06-10.06v0c0-5.56,4.51-10.06,10.06-10.06H448.3
	c5.56,0,10.06,4.51,10.06,10.06v0C458.36,460.38,453.86,464.88,448.3,464.88z"/>
<circle class="st0" cx="138.88" cy="430.14" r="6.49"/>
<circle class="st6" cx="187.58" cy="430.14" r="6.49"/>
<circle class="st7" cx="164.36" cy="430.14" r="6.49"/>
<rect x="151.78" y="452.63" class="st8" width="38.16" height="4.38"/>
<rect x="216.81" y="452.63" class="st8" width="38.16" height="4.38"/>
<rect x="132.39" y="496.38" class="st3" width="141.56" height="164.94"/>
<path class="st4" d="M239.53,566.21h-72.73c-1.79,0-3.25-1.45-3.25-3.25l0,0c0-1.79,1.45-3.25,3.25-3.25h72.73
	c1.79,0,3.25,1.45,3.25,3.25l0,0C242.78,564.75,241.33,566.21,239.53,566.21z"/>
<path class="st4" d="M239.53,610.61h-72.73c-1.79,0-3.25-1.45-3.25-3.25l0,0c0-1.79,1.45-3.25,3.25-3.25h72.73
	c1.79,0,3.25,1.45,3.25,3.25l0,0C242.78,609.16,241.33,610.61,239.53,610.61z"/>
<path class="st4" d="M239.53,595.73h-72.73c-1.79,0-3.25-1.45-3.25-3.25l0,0c0-1.79,1.45-3.25,3.25-3.25h72.73
	c1.79,0,3.25,1.45,3.25,3.25l0,0C242.78,594.27,241.33,595.73,239.53,595.73z"/>
<path class="st4" d="M239.53,582.09h-72.73c-1.79,0-3.25-1.45-3.25-3.25l0,0c0-1.79,1.45-3.25,3.25-3.25h72.73
	c1.79,0,3.25,1.45,3.25,3.25l0,0C242.78,580.64,241.33,582.09,239.53,582.09z"/>
<path class="st5" d="M207.06,648.32h-16.23c-5.38,0-9.74-4.36-9.74-9.74l0,0c0-5.38,4.36-9.74,9.74-9.74h16.23
	c5.38,0,9.74,4.36,9.74,9.74l0,0C216.81,643.96,212.44,648.32,207.06,648.32z"/>
<path class="st4" d="M309.96,648.32h-59.84c-7.86,0-14.23-6.37-14.23-14.23V520.7c0-7.86,6.37-14.23,14.23-14.23h59.84
	c7.86,0,14.23,6.37,14.23,14.23v113.39C324.19,641.95,317.82,648.32,309.96,648.32z"/>
<path class="st0" d="M307.71,628.84h-57.14c-4.3,0-7.79-3.49-7.79-7.79v-87.01c0-4.3,3.49-7.79,7.79-7.79h57.14
	c4.3,0,7.79,3.49,7.79,7.79v87.01C315.51,625.36,312.02,628.84,307.71,628.84z"/>
<path class="st5" d="M360.44,592.79l-51.67,37.13c-2.13,1.53-5.1,1.04-6.63-1.09l-30.46-42.38c-1.53-2.13-1.04-5.1,1.09-6.63
	l51.67-37.13c2.13-1.53,5.1-1.04,6.63,1.09l30.46,42.38C363.06,588.29,362.57,591.26,360.44,592.79z"/>
<rect x="291.75" y="568.33" transform="matrix(0.8121 -0.5836 0.5836 0.8121 -282.6729 294.8248)" class="st4" width="49.31" height="35.9"/>
<path class="st5" d="M384.96,610.61h-62.34c-3.93,0-7.12-3.19-7.12-7.12v-62.34c0-3.93,3.19-7.12,7.12-7.12h62.34
	c3.93,0,7.12,3.19,7.12,7.12v62.34C392.08,607.42,388.89,610.61,384.96,610.61z"/>
<path class="st3" d="M379.13,603.69h-50.67c-3.33,0-6.04-2.7-6.04-6.04v-50.67c0-3.33,2.7-6.04,6.04-6.04h50.67
	c3.33,0,6.04,2.7,6.04,6.04v50.67C385.16,600.99,382.46,603.69,379.13,603.69z"/>
<circle class="st9" cx="337.74" cy="553.81" r="9.15"/>
<polygon class="st10" points="363.38,566.21 343.46,603 383.31,603 "/>
<polygon class="st10" points="346.29,562.15 328.46,603.69 364.13,603.69 "/>
<ellipse class="st10" cx="495.86" cy="626.01" rx="37.5" ry="43.09"/>
<ellipse class="st3" cx="502.52" cy="544.66" rx="57.14" ry="63.31"/>
<path class="st11" d="M495.86,534.04c0.02,6.42,1.46,179.22,1.46,179.22"/>
<path class="st0" d="M522,546.7"/>
<polyline class="st12" points="522,546.7 497.32,566.21 483.04,546.7 "/>
<polyline class="st12" points="466.16,572.32 497.32,589.23 522,572.32 "/>
<path class="st11" d="M477.71,608.49c0.01,5.96,0.95,166.56,0.95,166.56"/>
<polyline class="st12" points="494.73,620.26 478.66,638.39 469.36,620.26 "/>
<polyline class="st12" points="458.36,644.08 478.66,659.79 494.73,644.08 "/>
<circle class="st0" cx="367.73" cy="481.35" r="6.49"/>
<circle class="st6" cx="416.43" cy="481.35" r="6.49"/>
<circle class="st7" cx="393.21" cy="481.35" r="6.49"/>
<circle class="st0" cx="367.73" cy="503.52" r="6.49"/>
<circle class="st6" cx="416.43" cy="503.52" r="6.49"/>
<circle class="st7" cx="393.21" cy="503.52" r="6.49"/>
<g>
	<g>
		<path d="M57.46,739.51c0,0.62,0.09,1.12,0.16,1.34h-1.07c-0.09-0.17-0.16-0.48-0.2-1.09c-0.38,0.52-1.36,1.26-3.66,1.26
			c-2.59,0-3.71-1.06-3.71-2.12c0-1.56,1.9-2.27,5.25-2.27c0.94,0,1.67,0,2.12,0v-0.72c0-0.71-0.33-1.66-2.88-1.66
			c-2.25,0-2.59,0.75-2.83,1.33h-1.12c0.13-0.78,0.89-1.98,3.97-1.98c2.54,0,3.97,0.68,3.97,2.24V739.51z M56.37,737.25
			c-0.42,0-1.45,0-2.19,0c-2.48,0-4.02,0.41-4.02,1.63c0,0.89,1,1.5,2.57,1.5c3.19,0,3.64-1.35,3.64-2.88V737.25z"/>
		<path d="M61.15,735.7c0-1.19-0.02-1.7-0.02-1.93h1.09c0.02,0.23,0.04,0.68,0.04,1.59c0.65-1.06,2.08-1.7,3.88-1.76v0.76
			c-2.32,0.1-3.88,1.12-3.88,2.8v3.68h-1.12V735.7z"/>
		<path d="M66.71,733.78h2.08v-2.21h1.12v2.21h2.66v0.67H69.9v4.6c0,0.79,0.27,1.25,1.34,1.25c0.33,0,0.8-0.01,1.16-0.08v0.62
			c-0.38,0.1-0.92,0.13-1.38,0.13c-1.43,0-2.23-0.45-2.23-1.59v-4.93h-2.08V733.78z"/>
		<path d="M80.64,730.42h1.12v4.55c0.54-0.71,1.63-1.36,3.82-1.36c2.63,0,4.58,1.37,4.58,3.55c0,2.24-1.74,3.87-4.87,3.87
			c-1.88,0-2.95-0.48-3.53-1.29c0,0.45-0.02,0.92-0.04,1.12h-1.09c0.02-0.81,0.02-1.61,0.02-2.42V730.42z M88.97,737.18
			c0-1.77-1.38-2.9-3.5-2.9c-2.79,0-3.77,1.2-3.77,3.06c0,1.67,0.87,3.03,3.64,3.03C87.58,740.36,88.97,739.17,88.97,737.18z"/>
		<path d="M92.63,733.78c2.25,4.05,3.24,5.72,3.62,6.49h0.02c0.45-0.86,1.34-2.51,3.5-6.49h1.16l-4.2,7.49
			c-1.18,2.1-1.99,2.56-4,2.56c-0.4,0-0.67-0.01-1.03-0.04v-0.71c0.33,0.03,0.65,0.04,1,0.04c1.61,0,2.12-0.5,2.95-1.95l-4.26-7.39
			H92.63z"/>
		<path d="M110,733.78v7.58c0,1.91-0.76,2.48-2.72,2.48c-0.04,0-0.49-0.01-0.63-0.03v-0.67c0.18,0.01,0.38,0.01,0.51,0.01
			c1.58,0,1.72-0.57,1.72-1.71v-7.66H110z M108.89,731.8v-1.37H110v1.37H108.89z"/>
		<path d="M122.71,737.3c0,1.97-1.72,3.72-5.04,3.72c-3.01,0-4.89-1.57-4.89-3.71c0-2.03,1.76-3.71,5-3.71
			C120.74,733.61,122.71,735.08,122.71,737.3z M113.95,737.32c0,1.69,1.43,3.04,3.79,3.04c2.41,0,3.77-1.26,3.77-3.04
			c0-1.67-1.34-3.04-3.82-3.04C115.16,734.27,113.95,735.62,113.95,737.32z"/>
		<path d="M126.59,730.42v4.55c0.63-0.74,1.72-1.36,3.68-1.36c1.59,0,3.77,0.51,3.77,2.75v4.5h-1.12v-4.36c0-1.4-1-2.19-2.86-2.19
			c-2.21,0-3.48,0.86-3.48,2.61v3.95h-1.12v-10.44H126.59z"/>
		<path d="M137.71,735.56c0-0.62,0-1.22-0.02-1.78h1.09c0.04,0.23,0.07,1.15,0.04,1.34c0.49-0.72,1.41-1.51,3.71-1.51
			c1.99,0,3.75,0.71,3.75,2.66v4.59h-1.12v-4.47c0-1.26-0.83-2.08-2.77-2.08c-2.66,0-3.57,1.4-3.57,2.95v3.61h-1.12V735.56z"/>
	</g>
</g>
</svg>
